<svg xmlns="http://www.w3.org/2000/svg" width="24" height="24" viewBox="0 0 24 24" fill="none">
  <path d="M22.225 0H1.771C.792 0 0 .774 0 1.729v20.542C0 23.227.792 24 1.771 24h20.451C23.2 24 24 23.227 24 22.271V1.729C24 .774 23.2 0 22.222 0h.003Z" fill="#0A66C2"/>
  <path d="M5.337 7.433a1.814 1.814 0 1 1 0-3.628 1.814 1.814 0 0 1 0 3.628Zm-1.621 13.02h3.248V9H3.716v11.453ZM9.078 9h3.112v1.561h.045c.434-.82 1.494-1.683 3.073-1.683 3.287 0 3.893 2.164 3.893 4.977v6.597H17.21V14.9c0-1.327-.026-3.037-1.852-3.037-1.853 0-2.136 1.447-2.136 2.94v5.648H9.078V9Z" fill="#fff"/>
</svg>
